<?xml version="1.0" encoding="utf-8" standalone="no"?>
<!DOCTYPE svg PUBLIC "-//W3C//DTD SVG 1.1//EN"
  "http://www.w3.org/Graphics/SVG/1.1/DTD/svg11.dtd">
<svg xmlns:xlink="http://www.w3.org/1999/xlink" width="1350.108pt" height="730.944pt" viewBox="0 0 1350.108 730.944" xmlns="http://www.w3.org/2000/svg" version="1.1">
 <metadata>
  <rdf:RDF xmlns:dc="http://purl.org/dc/elements/1.1/" xmlns:cc="http://creativecommons.org/ns#" xmlns:rdf="http://www.w3.org/1999/02/22-rdf-syntax-ns#">
   <cc:Work>
    <dc:type rdf:resource="http://purl.org/dc/dcmitype/StillImage"/>
    <dc:date>2026-09-22T12:53:58.844840</dc:date>
    <dc:format>image/svg+xml</dc:format>
    <dc:creator>
     <cc:Agent>
      <dc:title>Matplotlib v3.10.8, https://matplotlib.org/</dc:title>
     </cc:Agent>
    </dc:creator>
   </cc:Work>
  </rdf:RDF>
 </metadata>
 <defs>
  <style type="text/css">*{stroke-linejoin: round; stroke-linecap: butt}</style>
 </defs>
 <g id="figure_1">
  <g id="patch_1">
   <path d="M 0 730.944 
L 1350.108 730.944 
L 1350.108 0 
L 0 0 
z
" style="fill: #f5f1e9"/>
  </g>
  <g id="axes_1">
   <g id="patch_2">
    <path d="M 87.75702 635.92128 
L 1316.3553 635.92128 
L 1316.3553 59 
L 87.75702 59 
z
" style="fill: #f5f1e9"/>
   </g>
   <g id="line2d_1">
    <path d="M 87.75702 596.585738 
L 1316.3553 596.585738 
" clip-path="url(#p9e897a5d79)" style="fill: none; stroke-dasharray: 2,3; stroke-dashoffset: 0; stroke: #4d4d4d; stroke-opacity: 0.5"/>
   </g>
   <g id="matplotlib.axis_1">
    <g id="xtick_1">
     <g id="line2d_2"/>
     <g id="text_1">
      <text style="font-size: 14.2px; font-family: 'DejaVu Sans', 'Arial', 'Helvetica', sans-serif; text-anchor: middle; fill: #4d4d4d" x="153.282262" y="650.211061" transform="rotate(-0 153.282262 650.211061)">EP1</text>
     </g>
    </g>
    <g id="xtick_2">
     <g id="line2d_3"/>
     <g id="text_2">
      <text style="font-size: 14.2px; font-family: 'DejaVu Sans', 'Arial', 'Helvetica', sans-serif; text-anchor: middle; fill: #4d4d4d" x="480.90847" y="650.211061" transform="rotate(-0 480.90847 650.211061)">EP2</text>
     </g>
    </g>
    <g id="xtick_3">
     <g id="line2d_4"/>
     <g id="text_3">
      <text style="font-size: 14.2px; font-family: 'DejaVu Sans', 'Arial', 'Helvetica', sans-serif; text-anchor: middle; fill: #4d4d4d" x="808.534678" y="650.211061" transform="rotate(-0 808.534678 650.211061)">EP4</text>
     </g>
    </g>
    <g id="xtick_4">
     <g id="line2d_5"/>
     <g id="text_4">
      <text style="font-size: 14.2px; font-family: 'DejaVu Sans', 'Arial', 'Helvetica', sans-serif; text-anchor: middle; fill: #4d4d4d" x="1136.160886" y="650.211061" transform="rotate(-0 1136.160886 650.211061)">EP8</text>
     </g>
    </g>
    <g id="text_5">
     <text style="font-size: 15.5px; font-family: 'DejaVu Sans', 'Arial', 'Helvetica', sans-serif; text-anchor: middle; fill: #4d4d4d" x="702.05616" y="668.941796" transform="rotate(-0 702.05616 668.941796)">Expert-parallelism degree</text>
    </g>
   </g>
   <g id="matplotlib.axis_2">
    <g id="ytick_1">
     <g id="line2d_6">
      <path d="M 87.75702 596.585738 
L 1316.3553 596.585738 
" clip-path="url(#p9e897a5d79)" style="fill: none; stroke: #dedacd; stroke-linecap: square"/>
     </g>
     <g id="line2d_7"/>
     <g id="text_6">
      <text style="font-size: 14.2px; font-family: 'DejaVu Sans', 'Arial', 'Helvetica', sans-serif; text-anchor: end; fill: #4d4d4d" x="84.25702" y="601.980629" transform="rotate(-0 84.25702 601.980629)">1.0</text>
     </g>
    </g>
    <g id="ytick_2">
     <g id="line2d_8">
      <path d="M 87.75702 531.026502 
L 1316.3553 531.026502 
" clip-path="url(#p9e897a5d79)" style="fill: none; stroke: #dedacd; stroke-linecap: square"/>
     </g>
     <g id="line2d_9"/>
     <g id="text_7">
      <text style="font-size: 14.2px; font-family: 'DejaVu Sans', 'Arial', 'Helvetica', sans-serif; text-anchor: end; fill: #4d4d4d" x="84.25702" y="536.421392" transform="rotate(-0 84.25702 536.421392)">1.5</text>
     </g>
    </g>
    <g id="ytick_3">
     <g id="line2d_10">
      <path d="M 87.75702 465.467265 
L 1316.3553 465.467265 
" clip-path="url(#p9e897a5d79)" style="fill: none; stroke: #dedacd; stroke-linecap: square"/>
     </g>
     <g id="line2d_11"/>
     <g id="text_8">
      <text style="font-size: 14.2px; font-family: 'DejaVu Sans', 'Arial', 'Helvetica', sans-serif; text-anchor: end; fill: #4d4d4d" x="84.25702" y="470.862156" transform="rotate(-0 84.25702 470.862156)">2.0</text>
     </g>
    </g>
    <g id="ytick_4">
     <g id="line2d_12">
      <path d="M 87.75702 399.908029 
L 1316.3553 399.908029 
" clip-path="url(#p9e897a5d79)" style="fill: none; stroke: #dedacd; stroke-linecap: square"/>
     </g>
     <g id="line2d_13"/>
     <g id="text_9">
      <text style="font-size: 14.2px; font-family: 'DejaVu Sans', 'Arial', 'Helvetica', sans-serif; text-anchor: end; fill: #4d4d4d" x="84.25702" y="405.30292" transform="rotate(-0 84.25702 405.30292)">2.5</text>
     </g>
    </g>
    <g id="ytick_5">
     <g id="line2d_14">
      <path d="M 87.75702 334.348793 
L 1316.3553 334.348793 
" clip-path="url(#p9e897a5d79)" style="fill: none; stroke: #dedacd; stroke-linecap: square"/>
     </g>
     <g id="line2d_15"/>
     <g id="text_10">
      <text style="font-size: 14.2px; font-family: 'DejaVu Sans', 'Arial', 'Helvetica', sans-serif; text-anchor: end; fill: #4d4d4d" x="84.25702" y="339.743683" transform="rotate(-0 84.25702 339.743683)">3.0</text>
     </g>
    </g>
    <g id="ytick_6">
     <g id="line2d_16">
      <path d="M 87.75702 268.789556 
L 1316.3553 268.789556 
" clip-path="url(#p9e897a5d79)" style="fill: none; stroke: #dedacd; stroke-linecap: square"/>
     </g>
     <g id="line2d_17"/>
     <g id="text_11">
      <text style="font-size: 14.2px; font-family: 'DejaVu Sans', 'Arial', 'Helvetica', sans-serif; text-anchor: end; fill: #4d4d4d" x="84.25702" y="274.184447" transform="rotate(-0 84.25702 274.184447)">3.5</text>
     </g>
    </g>
    <g id="ytick_7">
     <g id="line2d_18">
      <path d="M 87.75702 203.23032 
L 1316.3553 203.23032 
" clip-path="url(#p9e897a5d79)" style="fill: none; stroke: #dedacd; stroke-linecap: square"/>
     </g>
     <g id="line2d_19"/>
     <g id="text_12">
      <text style="font-size: 14.2px; font-family: 'DejaVu Sans', 'Arial', 'Helvetica', sans-serif; text-anchor: end; fill: #4d4d4d" x="84.25702" y="208.625211" transform="rotate(-0 84.25702 208.625211)">4.0</text>
     </g>
    </g>
    <g id="ytick_8">
     <g id="line2d_20">
      <path d="M 87.75702 137.671084 
L 1316.3553 137.671084 
" clip-path="url(#p9e897a5d79)" style="fill: none; stroke: #dedacd; stroke-linecap: square"/>
     </g>
     <g id="line2d_21"/>
     <g id="text_13">
      <text style="font-size: 14.2px; font-family: 'DejaVu Sans', 'Arial', 'Helvetica', sans-serif; text-anchor: end; fill: #4d4d4d" x="84.25702" y="143.065974" transform="rotate(-0 84.25702 143.065974)">4.5</text>
     </g>
    </g>
    <g id="ytick_9">
     <g id="line2d_22">
      <path d="M 87.75702 72.111847 
L 1316.3553 72.111847 
" clip-path="url(#p9e897a5d79)" style="fill: none; stroke: #dedacd; stroke-linecap: square"/>
     </g>
     <g id="line2d_23"/>
     <g id="text_14">
      <text style="font-size: 14.2px; font-family: 'DejaVu Sans', 'Arial', 'Helvetica', sans-serif; text-anchor: end; fill: #4d4d4d" x="84.25702" y="77.506738" transform="rotate(-0 84.25702 77.506738)">5.0</text>
     </g>
    </g>
    <g id="text_15">
     <text style="font-size: 15.5px; font-family: 'DejaVu Sans', 'Arial', 'Helvetica', sans-serif; text-anchor: middle; fill: #4d4d4d" x="54.451067" y="347.46064" transform="rotate(-90 54.451067 347.46064)">Ratio relative to own-baseline EP</text>
    </g>
   </g>
   <g id="line2d_24">
    <path d="M 153.282262 596.585738 
L 480.90847 579.540337 
L 808.534678 577.57356 
L 1136.160886 567.2152 
" clip-path="url(#p9e897a5d79)" style="fill: none; stroke: #2b6572; stroke-width: 2.2; stroke-linecap: square"/>
    <defs>
     <path id="m02d0c15e99" d="M 0 3 
C 0.795609 3 1.55874 2.683901 2.12132 2.12132 
C 2.683901 1.55874 3 0.795609 3 0 
C 3 -0.795609 2.683901 -1.55874 2.12132 -2.12132 
C 1.55874 -2.683901 0.795609 -3 0 -3 
C -0.795609 -3 -1.55874 -2.683901 -2.12132 -2.12132 
C -2.683901 -1.55874 -3 -0.795609 -3 0 
C -3 0.795609 -2.683901 1.55874 -2.12132 2.12132 
C -1.55874 2.683901 -0.795609 3 0 3 
z
" style="stroke: #242424; stroke-width: 0.6"/>
    </defs>
    <g clip-path="url(#p9e897a5d79)">
     <use xlink:href="#m02d0c15e99" x="153.282262" y="596.585738" style="fill: #2b6572; stroke: #242424; stroke-width: 0.6"/>
     <use xlink:href="#m02d0c15e99" x="480.90847" y="579.540337" style="fill: #2b6572; stroke: #242424; stroke-width: 0.6"/>
     <use xlink:href="#m02d0c15e99" x="808.534678" y="577.57356" style="fill: #2b6572; stroke: #242424; stroke-width: 0.6"/>
     <use xlink:href="#m02d0c15e99" x="1136.160886" y="567.2152" style="fill: #2b6572; stroke: #242424; stroke-width: 0.6"/>
    </g>
   </g>
   <g id="text_16">
    <text style="font-weight: 700; font-size: 11.9px; font-family: 'DejaVu Sans', 'Arial', 'Helvetica', sans-serif; text-anchor: start; fill: #2b6572" x="1148.160886" y="570.498857" transform="rotate(-0 1148.160886 570.498857)">1.22x</text>
   </g>
   <g id="line2d_25">
    <path d="M 153.282262 596.585738 
L 480.90847 580.195929 
L 808.534678 569.444214 
L 1136.160886 547.154074 
" clip-path="url(#p9e897a5d79)" style="fill: none; stroke: #4e8c6b; stroke-width: 2.2; stroke-linecap: square"/>
    <defs>
     <path id="mc528df7aec" d="M 0 3 
C 0.795609 3 1.55874 2.683901 2.12132 2.12132 
C 2.683901 1.55874 3 0.795609 3 0 
C 3 -0.795609 2.683901 -1.55874 2.12132 -2.12132 
C 1.55874 -2.683901 0.795609 -3 0 -3 
C -0.795609 -3 -1.55874 -2.683901 -2.12132 -2.12132 
C -2.683901 -1.55874 -3 -0.795609 -3 0 
C -3 0.795609 -2.683901 1.55874 -2.12132 2.12132 
C -1.55874 2.683901 -0.795609 3 0 3 
z
" style="stroke: #242424; stroke-width: 0.6"/>
    </defs>
    <g clip-path="url(#p9e897a5d79)">
     <use xlink:href="#mc528df7aec" x="153.282262" y="596.585738" style="fill: #4e8c6b; stroke: #242424; stroke-width: 0.6"/>
     <use xlink:href="#mc528df7aec" x="480.90847" y="580.195929" style="fill: #4e8c6b; stroke: #242424; stroke-width: 0.6"/>
     <use xlink:href="#mc528df7aec" x="808.534678" y="569.444214" style="fill: #4e8c6b; stroke: #242424; stroke-width: 0.6"/>
     <use xlink:href="#mc528df7aec" x="1136.160886" y="547.154074" style="fill: #4e8c6b; stroke: #242424; stroke-width: 0.6"/>
    </g>
   </g>
   <g id="text_17">
    <text style="font-weight: 700; font-size: 11.9px; font-family: 'DejaVu Sans', 'Arial', 'Helvetica', sans-serif; text-anchor: start; fill: #4e8c6b" x="1148.160886" y="550.43773" transform="rotate(-0 1148.160886 550.43773)">1.38x</text>
   </g>
   <g id="line2d_26">
    <path d="M 153.282262 596.585738 
L 480.90847 569.444214 
L 808.534678 552.398813 
L 1136.160886 500.344779 
" clip-path="url(#p9e897a5d79)" style="fill: none; stroke: #c99a3c; stroke-width: 2.2; stroke-linecap: square"/>
    <defs>
     <path id="ma84e495263" d="M 0 3 
C 0.795609 3 1.55874 2.683901 2.12132 2.12132 
C 2.683901 1.55874 3 0.795609 3 0 
C 3 -0.795609 2.683901 -1.55874 2.12132 -2.12132 
C 1.55874 -2.683901 0.795609 -3 0 -3 
C -0.795609 -3 -1.55874 -2.683901 -2.12132 -2.12132 
C -2.683901 -1.55874 -3 -0.795609 -3 0 
C -3 0.795609 -2.683901 1.55874 -2.12132 2.12132 
C -1.55874 2.683901 -0.795609 3 0 3 
z
" style="stroke: #242424; stroke-width: 0.6"/>
    </defs>
    <g clip-path="url(#p9e897a5d79)">
     <use xlink:href="#ma84e495263" x="153.282262" y="596.585738" style="fill: #c99a3c; stroke: #242424; stroke-width: 0.6"/>
     <use xlink:href="#ma84e495263" x="480.90847" y="569.444214" style="fill: #c99a3c; stroke: #242424; stroke-width: 0.6"/>
     <use xlink:href="#ma84e495263" x="808.534678" y="552.398813" style="fill: #c99a3c; stroke: #242424; stroke-width: 0.6"/>
     <use xlink:href="#ma84e495263" x="1136.160886" y="500.344779" style="fill: #c99a3c; stroke: #242424; stroke-width: 0.6"/>
    </g>
   </g>
   <g id="text_18">
    <text style="font-weight: 700; font-size: 11.9px; font-family: 'DejaVu Sans', 'Arial', 'Helvetica', sans-serif; text-anchor: start; fill: #c99a3c" x="1148.160886" y="503.628435" transform="rotate(-0 1148.160886 503.628435)">1.73x</text>
   </g>
   <g id="line2d_27">
    <path d="M 153.282262 596.585738 
L 480.90847 553.185524 
L 808.534678 525.519526 
L 1136.160886 431.114226 
" clip-path="url(#p9e897a5d79)" style="fill: none; stroke: #dd8452; stroke-width: 2.2; stroke-linecap: square"/>
    <defs>
     <path id="m1453e4f63a" d="M 0 3 
C 0.795609 3 1.55874 2.683901 2.12132 2.12132 
C 2.683901 1.55874 3 0.795609 3 0 
C 3 -0.795609 2.683901 -1.55874 2.12132 -2.12132 
C 1.55874 -2.683901 0.795609 -3 0 -3 
C -0.795609 -3 -1.55874 -2.683901 -2.12132 -2.12132 
C -2.683901 -1.55874 -3 -0.795609 -3 0 
C -3 0.795609 -2.683901 1.55874 -2.12132 2.12132 
C -1.55874 2.683901 -0.795609 3 0 3 
z
" style="stroke: #242424; stroke-width: 0.6"/>
    </defs>
    <g clip-path="url(#p9e897a5d79)">
     <use xlink:href="#m1453e4f63a" x="153.282262" y="596.585738" style="fill: #dd8452; stroke: #242424; stroke-width: 0.6"/>
     <use xlink:href="#m1453e4f63a" x="480.90847" y="553.185524" style="fill: #dd8452; stroke: #242424; stroke-width: 0.6"/>
     <use xlink:href="#m1453e4f63a" x="808.534678" y="525.519526" style="fill: #dd8452; stroke: #242424; stroke-width: 0.6"/>
     <use xlink:href="#m1453e4f63a" x="1136.160886" y="431.114226" style="fill: #dd8452; stroke: #242424; stroke-width: 0.6"/>
    </g>
   </g>
   <g id="text_19">
    <text style="font-weight: 700; font-size: 11.9px; font-family: 'DejaVu Sans', 'Arial', 'Helvetica', sans-serif; text-anchor: start; fill: #dd8452" x="1148.160886" y="434.397882" transform="rotate(-0 1148.160886 434.397882)">2.26x</text>
   </g>
   <g id="line2d_28">
    <path d="M 153.282262 596.585738 
L 480.90847 529.321962 
L 808.534678 494.968922 
L 1136.160886 393.614342 
" clip-path="url(#p9e897a5d79)" style="fill: none; stroke: #8c4a4a; stroke-width: 2.2; stroke-linecap: square"/>
    <defs>
     <path id="m49c66053b1" d="M 0 3 
C 0.795609 3 1.55874 2.683901 2.12132 2.12132 
C 2.683901 1.55874 3 0.795609 3 0 
C 3 -0.795609 2.683901 -1.55874 2.12132 -2.12132 
C 1.55874 -2.683901 0.795609 -3 0 -3 
C -0.795609 -3 -1.55874 -2.683901 -2.12132 -2.12132 
C -2.683901 -1.55874 -3 -0.795609 -3 0 
C -3 0.795609 -2.683901 1.55874 -2.12132 2.12132 
C -1.55874 2.683901 -0.795609 3 0 3 
z
" style="stroke: #242424; stroke-width: 0.6"/>
    </defs>
    <g clip-path="url(#p9e897a5d79)">
     <use xlink:href="#m49c66053b1" x="153.282262" y="596.585738" style="fill: #8c4a4a; stroke: #242424; stroke-width: 0.6"/>
     <use xlink:href="#m49c66053b1" x="480.90847" y="529.321962" style="fill: #8c4a4a; stroke: #242424; stroke-width: 0.6"/>
     <use xlink:href="#m49c66053b1" x="808.534678" y="494.968922" style="fill: #8c4a4a; stroke: #242424; stroke-width: 0.6"/>
     <use xlink:href="#m49c66053b1" x="1136.160886" y="393.614342" style="fill: #8c4a4a; stroke: #242424; stroke-width: 0.6"/>
    </g>
   </g>
   <g id="text_20">
    <text style="font-weight: 700; font-size: 11.9px; font-family: 'DejaVu Sans', 'Arial', 'Helvetica', sans-serif; text-anchor: start; fill: #8c4a4a" x="1148.160886" y="396.897999" transform="rotate(-0 1148.160886 396.897999)">2.55x</text>
   </g>
   <g id="text_21">
    <text style="font-weight: 700; font-size: 12.8px; font-family: 'DejaVu Sans', 'Arial', 'Helvetica', sans-serif; text-anchor: start; fill: #242424" x="1148.160886" y="170.573622" transform="rotate(-0 1148.160886 170.573622)">4.28x</text>
   </g>
   <g id="line2d_29">
    <path d="M 153.282262 596.585738 
L 480.90847 504.54057 
L 808.534678 440.030282 
L 1136.160886 167.041622 
" clip-path="url(#p9e897a5d79)" style="fill: none; stroke-dasharray: 15.6,7.8; stroke-dashoffset: 0; stroke: #242424; stroke-width: 2.6"/>
    <defs>
     <path id="mce08892f5d" d="M 0 4.949747 
L 4.949747 0 
L 0 -4.949747 
L -4.949747 0 
z
" style="stroke: #000000; stroke-opacity: 0; stroke-linejoin: miter"/>
    </defs>
    <g clip-path="url(#p9e897a5d79)">
     <use xlink:href="#mce08892f5d" x="153.282262" y="596.585738" style="fill: #242424; stroke: #000000; stroke-opacity: 0; stroke-linejoin: miter"/>
     <use xlink:href="#mce08892f5d" x="480.90847" y="504.54057" style="fill: #242424; stroke: #000000; stroke-opacity: 0; stroke-linejoin: miter"/>
     <use xlink:href="#mce08892f5d" x="808.534678" y="440.030282" style="fill: #242424; stroke: #000000; stroke-opacity: 0; stroke-linejoin: miter"/>
     <use xlink:href="#mce08892f5d" x="1136.160886" y="167.041622" style="fill: #242424; stroke: #000000; stroke-opacity: 0; stroke-linejoin: miter"/>
    </g>
   </g>
   <g id="legend_1">
    <g id="line2d_30">
     <path d="M 99.27702 75.766 
L 112.07702 75.766 
L 124.87702 75.766 
" style="fill: none; stroke: #2b6572; stroke-width: 2.2; stroke-linecap: square"/>
     <g>
      <use xlink:href="#m02d0c15e99" x="112.07702" y="75.766" style="fill: #2b6572; stroke: #242424; stroke-width: 0.6"/>
     </g>
    </g>
    <g id="text_22">
     <text style="font-size: 12.8px; font-family: 'DejaVu Sans', 'Arial', 'Helvetica', sans-serif; text-anchor: start" x="135.11702" y="80.246" transform="rotate(-0 135.11702 80.246)">Batch=32</text>
    </g>
    <g id="line2d_31">
     <path d="M 99.27702 97.114 
L 112.07702 97.114 
L 124.87702 97.114 
" style="fill: none; stroke: #4e8c6b; stroke-width: 2.2; stroke-linecap: square"/>
     <g>
      <use xlink:href="#mc528df7aec" x="112.07702" y="97.114" style="fill: #4e8c6b; stroke: #242424; stroke-width: 0.6"/>
     </g>
    </g>
    <g id="text_23">
     <text style="font-size: 12.8px; font-family: 'DejaVu Sans', 'Arial', 'Helvetica', sans-serif; text-anchor: start" x="135.11702" y="101.594" transform="rotate(-0 135.11702 101.594)">Batch=64</text>
    </g>
    <g id="line2d_32">
     <path d="M 99.27702 118.462 
L 112.07702 118.462 
L 124.87702 118.462 
" style="fill: none; stroke: #c99a3c; stroke-width: 2.2; stroke-linecap: square"/>
     <g>
      <use xlink:href="#ma84e495263" x="112.07702" y="118.462" style="fill: #c99a3c; stroke: #242424; stroke-width: 0.6"/>
     </g>
    </g>
    <g id="text_24">
     <text style="font-size: 12.8px; font-family: 'DejaVu Sans', 'Arial', 'Helvetica', sans-serif; text-anchor: start" x="135.11702" y="122.942" transform="rotate(-0 135.11702 122.942)">Batch=128</text>
    </g>
    <g id="line2d_33">
     <path d="M 99.27702 139.81 
L 112.07702 139.81 
L 124.87702 139.81 
" style="fill: none; stroke: #dd8452; stroke-width: 2.2; stroke-linecap: square"/>
     <g>
      <use xlink:href="#m1453e4f63a" x="112.07702" y="139.81" style="fill: #dd8452; stroke: #242424; stroke-width: 0.6"/>
     </g>
    </g>
    <g id="text_25">
     <text style="font-size: 12.8px; font-family: 'DejaVu Sans', 'Arial', 'Helvetica', sans-serif; text-anchor: start" x="135.11702" y="144.29" transform="rotate(-0 135.11702 144.29)">Batch=256</text>
    </g>
    <g id="line2d_34">
     <path d="M 99.27702 161.158 
L 112.07702 161.158 
L 124.87702 161.158 
" style="fill: none; stroke: #8c4a4a; stroke-width: 2.2; stroke-linecap: square"/>
     <g>
      <use xlink:href="#m49c66053b1" x="112.07702" y="161.158" style="fill: #8c4a4a; stroke: #242424; stroke-width: 0.6"/>
     </g>
    </g>
    <g id="text_26">
     <text style="font-size: 12.8px; font-family: 'DejaVu Sans', 'Arial', 'Helvetica', sans-serif; text-anchor: start" x="135.11702" y="165.638" transform="rotate(-0 135.11702 165.638)">Batch=384</text>
    </g>
    <g id="line2d_35">
     <path d="M 99.27702 182.506 
L 112.07702 182.506 
L 124.87702 182.506 
" style="fill: none; stroke-dasharray: 15.6,7.8; stroke-dashoffset: 0; stroke: #242424; stroke-width: 2.6"/>
     <g>
      <use xlink:href="#mce08892f5d" x="112.07702" y="182.506" style="fill: #242424; stroke: #000000; stroke-opacity: 0; stroke-linejoin: miter"/>
     </g>
    </g>
    <g id="text_27">
     <text style="font-size: 12.8px; font-family: 'DejaVu Sans', 'Arial', 'Helvetica', sans-serif; text-anchor: start" x="135.11702" y="186.986" transform="rotate(-0 135.11702 186.986)">Max Power Draw (aggregate)</text>
    </g>
   </g>
  </g>
  <g id="text_28">
   <text style="font-size: 14.2px; font-family: 'DejaVu Sans', 'Arial', 'Helvetica', sans-serif; text-anchor: start; fill: #4d4d4d" x="24.301944" y="29.789781" transform="rotate(-0 24.301944 29.789781)">Throughput relative to own-baseline EP (solid, by batch size) vs max power draw (dashed) aggregated across B200/B300/H200.</text>
  </g>
 </g>
 <defs>
  <clipPath id="p9e897a5d79">
   <rect x="87.75702" y="59" width="1228.59828" height="576.92128"/>
  </clipPath>
 </defs>
</svg>
