<?xml version="1.0" encoding="utf-8" standalone="no"?>
<!DOCTYPE svg PUBLIC "-//W3C//DTD SVG 1.1//EN"
  "http://www.w3.org/Graphics/SVG/1.1/DTD/svg11.dtd">
<svg xmlns:xlink="http://www.w3.org/1999/xlink" width="1350.108pt" height="657pt" viewBox="0 0 1350.108 657" xmlns="http://www.w3.org/2000/svg" version="1.1">
 <metadata>
  <rdf:RDF xmlns:dc="http://purl.org/dc/elements/1.1/" xmlns:cc="http://creativecommons.org/ns#" xmlns:rdf="http://www.w3.org/1999/02/22-rdf-syntax-ns#">
   <cc:Work>
    <dc:type rdf:resource="http://purl.org/dc/dcmitype/StillImage"/>
    <dc:date>2026-09-22T12:54:00.358186</dc:date>
    <dc:format>image/svg+xml</dc:format>
    <dc:creator>
     <cc:Agent>
      <dc:title>Matplotlib v3.10.8, https://matplotlib.org/</dc:title>
     </cc:Agent>
    </dc:creator>
   </cc:Work>
  </rdf:RDF>
 </metadata>
 <defs>
  <style type="text/css">*{stroke-linejoin: round; stroke-linecap: butt}</style>
 </defs>
 <g id="figure_1">
  <g id="patch_1">
   <path d="M 0 657 
L 1350.108 657 
L 1350.108 0 
L 0 0 
z
" style="fill: #f5f1e9"/>
  </g>
  <g id="axes_1">
   <g id="patch_2">
    <path d="M 74.25594 553 
L 1316.3553 553 
L 1316.3553 59 
L 74.25594 59 
z
" style="fill: #f5f1e9"/>
   </g>
   <g id="FillBetweenPolyCollection_1">
    <defs>
     <path id="md44d59bc01" d="M 101.858148 -106.940476 
L 101.858148 -104 
L 105.827696 -104 
L 109.797245 -104 
L 113.766793 -104 
L 117.736341 -104 
L 121.70589 -104 
L 125.675438 -104 
L 129.644986 -104 
L 133.614534 -104 
L 137.584083 -104 
L 141.553631 -104 
L 145.523179 -104 
L 149.492728 -104 
L 153.462276 -104 
L 157.431824 -104 
L 161.401373 -104 
L 165.370921 -104 
L 169.340469 -104 
L 173.310018 -104 
L 177.279566 -104 
L 181.249114 -104 
L 185.218662 -104 
L 189.188211 -104 
L 193.157759 -104 
L 197.127307 -104 
L 201.096856 -104 
L 205.066404 -104 
L 209.035952 -104 
L 213.005501 -104 
L 216.975049 -104 
L 220.944597 -104 
L 224.914146 -104 
L 228.883694 -104 
L 232.853242 -104 
L 236.82279 -104 
L 240.792339 -104 
L 244.761887 -104 
L 248.731435 -104 
L 252.700984 -104 
L 256.670532 -104 
L 260.64008 -104 
L 264.609629 -104 
L 268.579177 -104 
L 272.548725 -104 
L 276.518274 -104 
L 280.487822 -104 
L 284.45737 -104 
L 288.426918 -104 
L 292.396467 -104 
L 296.366015 -104 
L 300.335563 -104 
L 304.305112 -104 
L 308.27466 -104 
L 312.244208 -104 
L 316.213757 -104 
L 320.183305 -104 
L 324.152853 -104 
L 328.122402 -104 
L 332.09195 -104 
L 336.061498 -104 
L 340.031046 -104 
L 344.000595 -104 
L 347.970143 -104 
L 351.939691 -104 
L 355.90924 -104 
L 359.878788 -104 
L 363.848336 -104 
L 367.817885 -104 
L 371.787433 -104 
L 375.756981 -104 
L 379.72653 -104 
L 383.696078 -104 
L 387.665626 -104 
L 391.635174 -104 
L 395.604723 -104 
L 399.574271 -104 
L 403.543819 -104 
L 407.513368 -104 
L 411.482916 -104 
L 415.452464 -104 
L 419.422013 -104 
L 423.391561 -104 
L 427.361109 -104 
L 431.330658 -104 
L 435.300206 -104 
L 439.269754 -104 
L 443.239302 -104 
L 447.208851 -104 
L 451.178399 -104 
L 455.147947 -104 
L 459.117496 -104 
L 463.087044 -104 
L 467.056592 -104 
L 471.026141 -104 
L 474.995689 -104 
L 478.965237 -104 
L 482.934786 -104 
L 486.904334 -104 
L 490.873882 -104 
L 494.84343 -104 
L 498.812979 -104 
L 502.782527 -104 
L 506.752075 -104 
L 510.721624 -104 
L 514.691172 -104 
L 518.66072 -104 
L 522.630269 -104 
L 526.599817 -104 
L 530.569365 -104 
L 534.538914 -104 
L 538.508462 -104 
L 542.47801 -104 
L 546.447558 -104 
L 550.417107 -104 
L 554.386655 -104 
L 558.356203 -104 
L 562.325752 -104 
L 566.2953 -104 
L 570.264848 -104 
L 574.234397 -104 
L 578.203945 -104 
L 582.173493 -104 
L 586.143042 -104 
L 590.11259 -104 
L 594.082138 -104 
L 598.051686 -104 
L 602.021235 -104 
L 605.990783 -104 
L 609.960331 -104 
L 613.92988 -104 
L 617.899428 -104 
L 621.868976 -104 
L 625.838525 -104 
L 629.808073 -104 
L 633.777621 -104 
L 637.74717 -104 
L 641.716718 -104 
L 645.686266 -104 
L 649.655814 -104 
L 653.625363 -104 
L 657.594911 -104 
L 661.564459 -104 
L 665.534008 -104 
L 669.503556 -104 
L 673.473104 -104 
L 677.442653 -104 
L 681.412201 -104 
L 685.381749 -104 
L 689.351298 -104 
L 693.320846 -104 
L 697.290394 -104 
L 701.259942 -104 
L 705.229491 -104 
L 709.199039 -104 
L 713.168587 -104 
L 717.138136 -104 
L 721.107684 -104 
L 725.077232 -104 
L 729.046781 -104 
L 733.016329 -104 
L 736.985877 -104 
L 740.955426 -104 
L 744.924974 -104 
L 748.894522 -104 
L 752.86407 -104 
L 756.833619 -104 
L 760.803167 -104 
L 764.772715 -104 
L 768.742264 -104 
L 772.711812 -104 
L 776.68136 -104 
L 780.650909 -104 
L 784.620457 -104 
L 788.590005 -104 
L 792.559554 -104 
L 796.529102 -104 
L 800.49865 -104 
L 804.468198 -104 
L 808.437747 -104 
L 812.407295 -104 
L 816.376843 -104 
L 820.346392 -104 
L 824.31594 -104 
L 828.285488 -104 
L 832.255037 -104 
L 836.224585 -104 
L 840.194133 -104 
L 844.163682 -104 
L 848.13323 -104 
L 852.102778 -104 
L 856.072326 -104 
L 860.041875 -104 
L 864.011423 -104 
L 867.980971 -104 
L 871.95052 -104 
L 875.920068 -104 
L 879.889616 -104 
L 883.859165 -104 
L 887.828713 -104 
L 891.798261 -104 
L 895.76781 -104 
L 899.737358 -104 
L 903.706906 -104 
L 907.676454 -104 
L 911.646003 -104 
L 915.615551 -104 
L 919.585099 -104 
L 923.554648 -104 
L 927.524196 -104 
L 931.493744 -104 
L 935.463293 -104 
L 939.432841 -104 
L 943.402389 -104 
L 947.371938 -104 
L 951.341486 -104 
L 955.311034 -104 
L 959.280582 -104 
L 963.250131 -104 
L 967.219679 -104 
L 971.189227 -104 
L 975.158776 -104 
L 979.128324 -104 
L 983.097872 -104 
L 987.067421 -104 
L 991.036969 -104 
L 995.006517 -104 
L 998.976066 -104 
L 1002.945614 -104 
L 1006.915162 -104 
L 1010.88471 -104 
L 1014.854259 -104 
L 1018.823807 -104 
L 1022.793355 -104 
L 1026.762904 -104 
L 1030.732452 -104 
L 1034.702 -104 
L 1038.671549 -104 
L 1042.641097 -104 
L 1046.610645 -104 
L 1050.580194 -104 
L 1054.549742 -104 
L 1058.51929 -104 
L 1062.488838 -104 
L 1066.458387 -104 
L 1070.427935 -104 
L 1074.397483 -104 
L 1078.367032 -104 
L 1082.33658 -104 
L 1086.306128 -104 
L 1090.275677 -104 
L 1094.245225 -104 
L 1098.214773 -104 
L 1102.184322 -104 
L 1106.15387 -104 
L 1110.123418 -104 
L 1114.092966 -104 
L 1118.062515 -104 
L 1122.032063 -104 
L 1126.001611 -104 
L 1129.97116 -104 
L 1133.940708 -104 
L 1137.910256 -104 
L 1141.879805 -104 
L 1145.849353 -104 
L 1149.818901 -104 
L 1153.78845 -104 
L 1157.757998 -104 
L 1161.727546 -104 
L 1165.697094 -104 
L 1169.666643 -104 
L 1173.636191 -104 
L 1177.605739 -104 
L 1181.575288 -104 
L 1185.544836 -104 
L 1189.514384 -104 
L 1193.483933 -104 
L 1197.453481 -104 
L 1201.423029 -104 
L 1205.392578 -104 
L 1209.362126 -104 
L 1213.331674 -104 
L 1217.301222 -104 
L 1221.270771 -104 
L 1225.240319 -104 
L 1229.209867 -104 
L 1233.179416 -104 
L 1237.148964 -104 
L 1241.118512 -104 
L 1245.088061 -104 
L 1249.057609 -104 
L 1253.027157 -104 
L 1256.996706 -104 
L 1260.966254 -104 
L 1264.935802 -104 
L 1268.90535 -104 
L 1272.874899 -104 
L 1276.844447 -104 
L 1280.813995 -104 
L 1284.783544 -104 
L 1288.753092 -104 
L 1288.753092 -515.666667 
L 1288.753092 -515.666667 
L 1284.783544 -485.2587 
L 1280.813995 -456.467928 
L 1276.844447 -429.339381 
L 1272.874899 -403.918086 
L 1268.90535 -380.249072 
L 1264.935802 -358.377367 
L 1260.966254 -338.347999 
L 1256.996706 -320.205997 
L 1253.027157 -303.99639 
L 1249.057609 -289.764205 
L 1245.088061 -277.554471 
L 1241.118512 -267.412215 
L 1237.148964 -259.382468 
L 1233.179416 -253.510199 
L 1229.209867 -249.747547 
L 1225.240319 -247.765113 
L 1221.270771 -247.180327 
L 1217.301222 -247.61062 
L 1213.331674 -248.673421 
L 1209.362126 -249.986161 
L 1205.392578 -251.166475 
L 1201.423029 -251.942399 
L 1197.453481 -252.334446 
L 1193.483933 -252.411016 
L 1189.514384 -252.240507 
L 1185.544836 -251.891318 
L 1181.575288 -251.431848 
L 1177.605739 -250.930482 
L 1173.636191 -250.452349 
L 1169.666643 -250.055016 
L 1165.697094 -249.794984 
L 1161.727546 -249.728752 
L 1157.757998 -249.912818 
L 1153.78845 -250.403681 
L 1149.818901 -251.257106 
L 1145.849353 -252.422289 
L 1141.879805 -253.63127 
L 1137.910256 -254.589653 
L 1133.940708 -255.003043 
L 1129.97116 -254.577045 
L 1126.001611 -253.017264 
L 1122.032063 -250.032056 
L 1118.062515 -245.583667 
L 1114.092966 -240.089797 
L 1110.123418 -234.015578 
L 1106.15387 -227.82614 
L 1102.184322 -221.986616 
L 1098.214773 -216.962136 
L 1094.245225 -213.213605 
L 1090.275677 -210.933462 
L 1086.306128 -209.889317 
L 1082.33658 -209.811196 
L 1078.367032 -210.429126 
L 1074.397483 -211.473132 
L 1070.427935 -212.673241 
L 1066.458387 -213.761715 
L 1062.488838 -214.573928 
L 1058.51929 -215.089442 
L 1054.549742 -215.298555 
L 1050.580194 -215.191565 
L 1046.610645 -214.758771 
L 1042.641097 -213.990472 
L 1038.671549 -212.878454 
L 1034.702 -211.466457 
L 1030.732452 -209.862487 
L 1026.762904 -208.17854 
L 1022.793355 -206.526609 
L 1018.823807 -205.018688 
L 1014.854259 -203.76677 
L 1010.88471 -202.879517 
L 1006.915162 -202.37478 
L 1002.945614 -202.17094 
L 998.976066 -202.181313 
L 995.006517 -202.319214 
L 991.036969 -202.497959 
L 987.067421 -202.630862 
L 983.097872 -202.634842 
L 979.128324 -202.505308 
L 975.158776 -202.313823 
L 971.189227 -202.13508 
L 967.219679 -202.043772 
L 963.250131 -202.114592 
L 959.280582 -202.422234 
L 955.311034 -203.032778 
L 951.341486 -203.859333 
L 947.371938 -204.683591 
L 943.402389 -205.282967 
L 939.432841 -205.434876 
L 935.463293 -204.916734 
L 931.493744 -203.505956 
L 927.524196 -200.999748 
L 923.554648 -197.486014 
L 919.585099 -193.273722 
L 915.615551 -188.67737 
L 911.646003 -184.011456 
L 907.676454 -179.590478 
L 903.706906 -175.728935 
L 899.737358 -172.71905 
L 895.76781 -170.578973 
L 891.798261 -169.142577 
L 887.828713 -168.240305 
L 883.859165 -167.702604 
L 879.889616 -167.35992 
L 875.920068 -167.042699 
L 871.95052 -166.59449 
L 867.980971 -165.995237 
L 864.011423 -165.305858 
L 860.041875 -164.588333 
L 856.072326 -163.904645 
L 852.102778 -163.316776 
L 848.13323 -162.886708 
L 844.163682 -162.666961 
L 840.194133 -162.626097 
L 836.224585 -162.68875 
L 832.255037 -162.779169 
L 828.285488 -162.821605 
L 824.31594 -162.740307 
L 820.346392 -162.459526 
L 816.376843 -161.916207 
L 812.407295 -161.143982 
L 808.437747 -160.220955 
L 804.468198 -159.22547 
L 800.49865 -158.23587 
L 796.529102 -157.330496 
L 792.559554 -156.58769 
L 788.590005 -156.074653 
L 784.620457 -155.785404 
L 780.650909 -155.68444 
L 776.68136 -155.736174 
L 772.711812 -155.905018 
L 768.742264 -156.155387 
L 764.772715 -156.451694 
L 760.803167 -156.757734 
L 756.833619 -157.0338 
L 752.86407 -157.238945 
L 748.894522 -157.332222 
L 744.924974 -157.272681 
L 740.955426 -157.019377 
L 736.985877 -156.531361 
L 733.016329 -155.78303 
L 729.046781 -154.824502 
L 725.077232 -153.729204 
L 721.107684 -152.570571 
L 717.138136 -151.422039 
L 713.168587 -150.357043 
L 709.199039 -149.449017 
L 705.229491 -148.749664 
L 701.259942 -148.217467 
L 697.290394 -147.785926 
L 693.320846 -147.388536 
L 689.351298 -146.958795 
L 685.381749 -146.4302 
L 681.412201 -145.736248 
L 677.442653 -144.834679 
L 673.473104 -143.773665 
L 669.503556 -142.622464 
L 665.534008 -141.450333 
L 661.564459 -140.32653 
L 657.594911 -139.320313 
L 653.625363 -138.500934 
L 649.655814 -137.919659 
L 645.686266 -137.569339 
L 641.716718 -137.430982 
L 637.74717 -137.485598 
L 633.777621 -137.714198 
L 629.808073 -138.097792 
L 625.838525 -138.617362 
L 621.868976 -139.230149 
L 617.899428 -139.826125 
L 613.92988 -140.283425 
L 609.960331 -140.480186 
L 605.990783 -140.294545 
L 602.021235 -139.604639 
L 598.051686 -138.288842 
L 594.082138 -136.311523 
L 590.11259 -133.850183 
L 586.143042 -131.114775 
L 582.173493 -128.315254 
L 578.203945 -125.661573 
L 574.234397 -123.363687 
L 570.264848 -121.631029 
L 566.2953 -120.574846 
L 562.325752 -120.092945 
L 558.356203 -120.055104 
L 554.386655 -120.331102 
L 550.417107 -120.790719 
L 546.447558 -121.303732 
L 542.47801 -121.740347 
L 538.508462 -122.019414 
L 534.538914 -122.152768 
L 530.569365 -122.162723 
L 526.599817 -122.071591 
L 522.630269 -121.901685 
L 518.66072 -121.675318 
L 514.691172 -121.414768 
L 510.721624 -121.139662 
L 506.752075 -120.865159 
L 502.782527 -120.605994 
L 498.812979 -120.376896 
L 494.84343 -120.192599 
L 490.873882 -120.067835 
L 486.904334 -120.016952 
L 482.934786 -120.033747 
L 478.965237 -120.081444 
L 474.995689 -120.120784 
L 471.026141 -120.112505 
L 467.056592 -120.01735 
L 463.087044 -119.796057 
L 459.117496 -119.410427 
L 455.147947 -118.864592 
L 451.178399 -118.218357 
L 447.208851 -117.535314 
L 443.239302 -116.879057 
L 439.269754 -116.31318 
L 435.300206 -115.901274 
L 431.330658 -115.704776 
L 427.361109 -115.718744 
L 423.391561 -115.860983 
L 419.422013 -116.044947 
L 415.452464 -116.184086 
L 411.482916 -116.191856 
L 407.513368 -115.981709 
L 403.543819 -115.470647 
L 399.574271 -114.661955 
L 395.604723 -113.647857 
L 391.635174 -112.524657 
L 387.665626 -111.388661 
L 383.696078 -110.336173 
L 379.72653 -109.463499 
L 375.756981 -108.862891 
L 371.787433 -108.547085 
L 367.817885 -108.456212 
L 363.848336 -108.527742 
L 359.878788 -108.699145 
L 355.90924 -108.907889 
L 351.939691 -109.091444 
L 347.970143 -109.190111 
L 344.000595 -109.189859 
L 340.031046 -109.113569 
L 336.061498 -108.985182 
L 332.09195 -108.828639 
L 328.122402 -108.667877 
L 324.152853 -108.526839 
L 320.183305 -108.428078 
L 316.213757 -108.375563 
L 312.244208 -108.359966 
L 308.27466 -108.371673 
L 304.305112 -108.401069 
L 300.335563 -108.438539 
L 296.366015 -108.474469 
L 292.396467 -108.499873 
L 288.426918 -108.512892 
L 284.45737 -108.516166 
L 280.487822 -108.512408 
L 276.518274 -108.504329 
L 272.548725 -108.494641 
L 268.579177 -108.486057 
L 264.609629 -108.481042 
L 260.64008 -108.479696 
L 256.670532 -108.4808 
L 252.700984 -108.483121 
L 248.731435 -108.485424 
L 244.761887 -108.486477 
L 240.792339 -108.485046 
L 236.82279 -108.48006 
L 232.853242 -108.471772 
L 228.883694 -108.461088 
L 224.914146 -108.448917 
L 220.944597 -108.43617 
L 216.975049 -108.423755 
L 213.005501 -108.412583 
L 209.035952 -108.4035 
L 205.066404 -108.396917 
L 201.096856 -108.393051 
L 197.127307 -108.392121 
L 193.157759 -108.394346 
L 189.188211 -108.399944 
L 185.218662 -108.409134 
L 181.249114 -108.421782 
L 177.279566 -108.435606 
L 173.310018 -108.447512 
L 169.340469 -108.454403 
L 165.370921 -108.453185 
L 161.401373 -108.440761 
L 157.431824 -108.414037 
L 153.462276 -108.370509 
L 149.492728 -108.31081 
L 145.523179 -108.236609 
L 141.553631 -108.149575 
L 137.584083 -108.051375 
L 133.614534 -107.943679 
L 129.644986 -107.828155 
L 125.675438 -107.706472 
L 121.70589 -107.580299 
L 117.736341 -107.451303 
L 113.766793 -107.321155 
L 109.797245 -107.191522 
L 105.827696 -107.064073 
L 101.858148 -106.940476 
z
" style="stroke: #2b6572; stroke-opacity: 0.1"/>
    </defs>
    <g clip-path="url(#pe92408d0c4)">
     <use xlink:href="#md44d59bc01" x="0" y="657" style="fill: #2b6572; fill-opacity: 0.1; stroke: #2b6572; stroke-opacity: 0.1"/>
    </g>
   </g>
   <g id="matplotlib.axis_1">
    <g id="xtick_1">
     <g id="line2d_1"/>
    </g>
    <g id="xtick_2">
     <g id="line2d_2"/>
    </g>
    <g id="xtick_3">
     <g id="line2d_3"/>
    </g>
    <g id="xtick_4">
     <g id="line2d_4"/>
    </g>
    <g id="xtick_5">
     <g id="line2d_5"/>
    </g>
    <g id="xtick_6">
     <g id="line2d_6"/>
    </g>
    <g id="xtick_7">
     <g id="line2d_7"/>
    </g>
    <g id="xtick_8">
     <g id="line2d_8"/>
    </g>
    <g id="xtick_9">
     <g id="line2d_9"/>
    </g>
    <g id="text_1">
     <text style="font-size: 15.5px; font-family: 'DejaVu Sans', 'Arial', 'Helvetica', sans-serif; text-anchor: middle; fill: #4d4d4d" x="695.30562" y="568.777578" transform="rotate(-0 695.30562 568.777578)">Models, sorted by Total Params (ascending)</text>
    </g>
   </g>
   <g id="matplotlib.axis_2">
    <g id="ytick_1">
     <g id="line2d_10">
      <path d="M 74.25594 553 
L 1316.3553 553 
" clip-path="url(#pe92408d0c4)" style="fill: none; stroke: #dedacd; stroke-linecap: square"/>
     </g>
     <g id="line2d_11"/>
     <g id="text_2">
      <text style="font-size: 13.5px; font-family: 'DejaVu Sans', 'Arial', 'Helvetica', sans-serif; text-anchor: end; fill: #4d4d4d" x="70.75594" y="558.128945" transform="rotate(-0 70.75594 558.128945)">0</text>
     </g>
    </g>
    <g id="ytick_2">
     <g id="line2d_12">
      <path d="M 74.25594 479.488095 
L 1316.3553 479.488095 
" clip-path="url(#pe92408d0c4)" style="fill: none; stroke: #dedacd; stroke-linecap: square"/>
     </g>
     <g id="line2d_13"/>
     <g id="text_3">
      <text style="font-size: 13.5px; font-family: 'DejaVu Sans', 'Arial', 'Helvetica', sans-serif; text-anchor: end; fill: #4d4d4d" x="70.75594" y="484.617041" transform="rotate(-0 70.75594 484.617041)">500</text>
     </g>
    </g>
    <g id="ytick_3">
     <g id="line2d_14">
      <path d="M 74.25594 405.97619 
L 1316.3553 405.97619 
" clip-path="url(#pe92408d0c4)" style="fill: none; stroke: #dedacd; stroke-linecap: square"/>
     </g>
     <g id="line2d_15"/>
     <g id="text_4">
      <text style="font-size: 13.5px; font-family: 'DejaVu Sans', 'Arial', 'Helvetica', sans-serif; text-anchor: end; fill: #4d4d4d" x="70.75594" y="411.105136" transform="rotate(-0 70.75594 411.105136)">1000</text>
     </g>
    </g>
    <g id="ytick_4">
     <g id="line2d_16">
      <path d="M 74.25594 332.464286 
L 1316.3553 332.464286 
" clip-path="url(#pe92408d0c4)" style="fill: none; stroke: #dedacd; stroke-linecap: square"/>
     </g>
     <g id="line2d_17"/>
     <g id="text_5">
      <text style="font-size: 13.5px; font-family: 'DejaVu Sans', 'Arial', 'Helvetica', sans-serif; text-anchor: end; fill: #4d4d4d" x="70.75594" y="337.593231" transform="rotate(-0 70.75594 337.593231)">1500</text>
     </g>
    </g>
    <g id="ytick_5">
     <g id="line2d_18">
      <path d="M 74.25594 258.952381 
L 1316.3553 258.952381 
" clip-path="url(#pe92408d0c4)" style="fill: none; stroke: #dedacd; stroke-linecap: square"/>
     </g>
     <g id="line2d_19"/>
     <g id="text_6">
      <text style="font-size: 13.5px; font-family: 'DejaVu Sans', 'Arial', 'Helvetica', sans-serif; text-anchor: end; fill: #4d4d4d" x="70.75594" y="264.081326" transform="rotate(-0 70.75594 264.081326)">2000</text>
     </g>
    </g>
    <g id="ytick_6">
     <g id="line2d_20">
      <path d="M 74.25594 185.440476 
L 1316.3553 185.440476 
" clip-path="url(#pe92408d0c4)" style="fill: none; stroke: #dedacd; stroke-linecap: square"/>
     </g>
     <g id="line2d_21"/>
     <g id="text_7">
      <text style="font-size: 13.5px; font-family: 'DejaVu Sans', 'Arial', 'Helvetica', sans-serif; text-anchor: end; fill: #4d4d4d" x="70.75594" y="190.569422" transform="rotate(-0 70.75594 190.569422)">2500</text>
     </g>
    </g>
    <g id="ytick_7">
     <g id="line2d_22">
      <path d="M 74.25594 111.928571 
L 1316.3553 111.928571 
" clip-path="url(#pe92408d0c4)" style="fill: none; stroke: #dedacd; stroke-linecap: square"/>
     </g>
     <g id="line2d_23"/>
     <g id="text_8">
      <text style="font-size: 13.5px; font-family: 'DejaVu Sans', 'Arial', 'Helvetica', sans-serif; text-anchor: end; fill: #4d4d4d" x="70.75594" y="117.057517" transform="rotate(-0 70.75594 117.057517)">3000</text>
     </g>
    </g>
    <g id="text_9">
     <text style="font-size: 15.5px; font-family: 'DejaVu Sans', 'Arial', 'Helvetica', sans-serif; text-anchor: middle; fill: #4d4d4d" x="29.174924" y="306" transform="rotate(-90 29.174924 306)">Params (B)</text>
    </g>
   </g>
   <g id="line2d_24">
    <path d="M 101.858148 550.059524 
L 145.523179 548.763391 
L 161.401373 548.559239 
L 185.218662 548.590866 
L 220.944597 548.56383 
L 276.518274 548.495671 
L 296.366015 548.525531 
L 316.213757 548.624437 
L 324.152853 548.473161 
L 344.000595 547.810141 
L 351.939691 547.908556 
L 367.817885 548.543788 
L 371.787433 548.452915 
L 375.756981 548.137109 
L 379.72653 547.536501 
L 383.696078 546.663827 
L 391.635174 544.475343 
L 399.574271 542.338045 
L 403.543819 541.529353 
L 407.513368 541.018291 
L 411.482916 540.808144 
L 415.452464 540.815914 
L 431.330658 541.295224 
L 435.300206 541.098726 
L 439.269754 540.68682 
L 447.208851 539.464686 
L 455.147947 538.135408 
L 459.117496 537.589573 
L 463.087044 537.203943 
L 467.056592 536.98265 
L 474.995689 536.879216 
L 490.873882 536.932165 
L 498.812979 536.623104 
L 510.721624 535.860338 
L 522.630269 535.098315 
L 530.569365 534.837277 
L 534.538914 534.847232 
L 538.508462 534.980586 
L 542.47801 535.259653 
L 558.356203 536.944896 
L 562.325752 536.907055 
L 566.2953 536.425154 
L 570.264848 535.368971 
L 574.234397 533.636313 
L 578.203945 531.338427 
L 582.173493 528.684746 
L 590.11259 523.149817 
L 594.082138 520.688477 
L 598.051686 518.711158 
L 602.021235 517.395361 
L 605.990783 516.705455 
L 609.960331 516.519814 
L 613.92988 516.716575 
L 617.899428 517.173875 
L 629.808073 518.902208 
L 633.777621 519.285802 
L 637.74717 519.514402 
L 641.716718 519.569018 
L 645.686266 519.430661 
L 649.655814 519.080341 
L 653.625363 518.499066 
L 657.594911 517.679687 
L 661.564459 516.67347 
L 677.442653 512.165321 
L 681.412201 511.263752 
L 685.381749 510.5698 
L 693.320846 509.611464 
L 701.259942 508.782533 
L 705.229491 508.250336 
L 709.199039 507.550983 
L 713.168587 506.642957 
L 721.107684 504.429429 
L 729.046781 502.175498 
L 733.016329 501.21697 
L 736.985877 500.468639 
L 740.955426 499.980623 
L 744.924974 499.727319 
L 748.894522 499.667778 
L 752.86407 499.761055 
L 760.803167 500.242266 
L 772.711812 501.094982 
L 776.68136 501.263826 
L 780.650909 501.31556 
L 784.620457 501.214596 
L 788.590005 500.925347 
L 792.559554 500.41231 
L 796.529102 499.669504 
L 804.468198 497.77453 
L 812.407295 495.856018 
L 816.376843 495.083793 
L 820.346392 494.540474 
L 824.31594 494.259693 
L 828.285488 494.178395 
L 844.163682 494.333039 
L 848.13323 494.113292 
L 852.102778 493.683224 
L 860.041875 492.411667 
L 867.980971 491.004763 
L 871.95052 490.40551 
L 875.920068 489.957301 
L 883.859165 489.297396 
L 887.828713 488.759695 
L 891.798261 487.857423 
L 895.76781 486.421027 
L 899.737358 484.28095 
L 903.706906 481.271065 
L 907.676454 477.409522 
L 911.646003 472.988544 
L 919.585099 463.726278 
L 923.554648 459.513986 
L 927.524196 456.000252 
L 931.493744 453.494044 
L 935.463293 452.083266 
L 939.432841 451.565124 
L 943.402389 451.717033 
L 947.371938 452.316409 
L 955.311034 453.967222 
L 959.280582 454.577766 
L 963.250131 454.885408 
L 967.219679 454.956228 
L 975.158776 454.686177 
L 983.097872 454.365158 
L 987.067421 454.369138 
L 1002.945614 454.82906 
L 1006.915162 454.62522 
L 1010.88471 454.120483 
L 1014.854259 453.23323 
L 1018.823807 451.981312 
L 1022.793355 450.473391 
L 1034.702 445.533543 
L 1038.671549 444.121546 
L 1042.641097 443.009528 
L 1046.610645 442.241229 
L 1050.580194 441.808435 
L 1054.549742 441.701445 
L 1058.51929 441.910558 
L 1062.488838 442.426072 
L 1066.458387 443.238285 
L 1078.367032 446.570874 
L 1082.33658 447.188804 
L 1086.306128 447.110683 
L 1090.275677 446.066538 
L 1094.245225 443.786395 
L 1098.214773 440.037864 
L 1102.184322 435.013384 
L 1106.15387 429.17386 
L 1114.092966 416.910203 
L 1118.062515 411.416333 
L 1122.032063 406.967944 
L 1126.001611 403.982736 
L 1129.97116 402.422955 
L 1133.940708 401.996957 
L 1137.910256 402.410347 
L 1141.879805 403.36873 
L 1149.818901 405.742894 
L 1153.78845 406.596319 
L 1157.757998 407.087182 
L 1161.727546 407.271248 
L 1165.697094 407.205016 
L 1169.666643 406.944984 
L 1177.605739 406.069518 
L 1185.544836 405.108682 
L 1189.514384 404.759493 
L 1193.483933 404.588984 
L 1197.453481 404.665554 
L 1201.423029 405.057601 
L 1205.392578 405.833525 
L 1209.362126 407.013839 
L 1213.331674 408.326579 
L 1217.301222 409.38938 
L 1221.270771 409.819673 
L 1225.240319 409.234887 
L 1229.209867 407.252453 
L 1233.179416 403.489801 
L 1237.148964 397.617532 
L 1241.118512 389.587785 
L 1245.088061 379.445529 
L 1249.057609 367.235795 
L 1253.027157 353.00361 
L 1256.996706 336.794003 
L 1260.966254 318.652001 
L 1264.935802 298.622633 
L 1268.90535 276.750928 
L 1272.874899 253.081914 
L 1276.844447 227.660619 
L 1280.813995 200.532072 
L 1284.783544 171.7413 
L 1288.753092 141.333333 
L 1288.753092 141.333333 
" clip-path="url(#pe92408d0c4)" style="fill: none; stroke: #2b6572; stroke-width: 3; stroke-linecap: square"/>
   </g>
   <g id="line2d_25">
    <path d="M 101.858148 552.470714 
L 117.736341 552.382508 
L 145.523179 552.50474 
L 173.310018 552.569243 
L 328.122402 552.521241 
L 431.330658 552.595678 
L 439.269754 552.362591 
L 451.178399 551.778363 
L 471.026141 550.715082 
L 478.965237 550.47567 
L 486.904334 550.470949 
L 494.84343 550.76363 
L 518.66072 552.151541 
L 526.599817 552.31763 
L 538.508462 552.301565 
L 558.356203 552.021279 
L 566.2953 551.76398 
L 574.234397 551.33895 
L 598.051686 549.788743 
L 605.990783 549.626182 
L 617.899428 549.694954 
L 629.808073 549.761658 
L 649.655814 549.68953 
L 657.594911 549.883429 
L 669.503556 550.477393 
L 681.412201 551.084988 
L 689.351298 551.308897 
L 697.290394 551.309742 
L 705.229491 551.039557 
L 713.168587 550.456537 
L 733.016329 548.523892 
L 740.955426 548.143497 
L 748.894522 548.103589 
L 768.742264 548.270122 
L 784.620457 548.113141 
L 792.559554 548.326631 
L 800.49865 548.89392 
L 816.376843 550.305109 
L 824.31594 550.688199 
L 832.255037 550.758544 
L 848.13323 550.481365 
L 867.980971 550.064421 
L 875.920068 549.696529 
L 887.828713 548.834817 
L 899.737358 547.988648 
L 907.676454 547.659759 
L 915.615551 547.537808 
L 951.341486 547.553198 
L 987.067421 547.529749 
L 1018.823807 546.941297 
L 1038.671549 547.103378 
L 1058.51929 547.17506 
L 1094.245225 547.086416 
L 1106.15387 547.547945 
L 1122.032063 548.262775 
L 1129.97116 548.413983 
L 1141.879805 548.387752 
L 1165.697094 548.224236 
L 1181.575288 548.334356 
L 1197.453481 548.454734 
L 1205.392578 548.313602 
L 1213.331674 547.948497 
L 1233.179416 546.837683 
L 1256.996706 546.14988 
L 1260.966254 545.814704 
L 1264.935802 545.334994 
L 1268.90535 544.680178 
L 1272.874899 543.819685 
L 1276.844447 542.722945 
L 1280.813995 541.359385 
L 1284.783544 539.698435 
L 1288.753092 537.709524 
L 1288.753092 537.709524 
" clip-path="url(#pe92408d0c4)" style="fill: none; stroke: #dd8452; stroke-width: 3; stroke-linecap: square"/>
   </g>
   <g id="patch_3">
    <path d="M 1123.748926 395.012714 
Q 1123.610857 397.497965 1123.472787 399.983216 
" style="fill: none; stroke: #999999; stroke-width: 1.2; stroke-linecap: round"/>
   </g>
   <g id="patch_4">
    <path d="M 1114.496573 416.975664 
Q 1129.750027 412.346674 1145.00348 407.717684 
" style="fill: none; stroke: #999999; stroke-width: 1.2; stroke-linecap: round"/>
   </g>
   <g id="patch_5">
    <path d="M 1246.31391 394.04644 
Q 1242.385547 396.812792 1238.457183 399.579145 
" style="fill: none; stroke: #999999; stroke-width: 1.2; stroke-linecap: round"/>
   </g>
   <g id="patch_6">
    <path d="M 1225.671548 324.584854 
Q 1240.463988 321.740154 1255.256429 318.895454 
" style="fill: none; stroke: #999999; stroke-width: 1.2; stroke-linecap: round"/>
   </g>
   <g id="patch_7">
    <path d="M 1273.316686 147.765169 
Q 1278.266813 145.702616 1283.216939 143.640064 
" style="fill: none; stroke: #999999; stroke-width: 1.2; stroke-linecap: round"/>
   </g>
   <g id="PathCollection_1">
    <defs>
     <path id="m48d9f5c9f7" d="M 0 3.24037 
C 0.859356 3.24037 1.683631 2.898944 2.291288 2.291288 
C 2.898944 1.683631 3.24037 0.859356 3.24037 0 
C 3.24037 -0.859356 2.898944 -1.683631 2.291288 -2.291288 
C 1.683631 -2.898944 0.859356 -3.24037 0 -3.24037 
C -0.859356 -3.24037 -1.683631 -2.898944 -2.291288 -2.291288 
C -2.898944 -1.683631 -3.24037 -0.859356 -3.24037 0 
C -3.24037 0.859356 -2.898944 1.683631 -2.291288 2.291288 
C -1.683631 2.898944 -0.859356 3.24037 0 3.24037 
z
" style="stroke: #ffffff"/>
    </defs>
    <g clip-path="url(#pe92408d0c4)">
     <use xlink:href="#m48d9f5c9f7" x="101.858148" y="550.059524" style="fill: #2b6572; stroke: #ffffff"/>
     <use xlink:href="#m48d9f5c9f7" x="129.460356" y="549.177381" style="fill: #2b6572; stroke: #ffffff"/>
     <use xlink:href="#m48d9f5c9f7" x="157.062564" y="548.589286" style="fill: #2b6572; stroke: #ffffff"/>
     <use xlink:href="#m48d9f5c9f7" x="184.664772" y="548.589286" style="fill: #2b6572; stroke: #ffffff"/>
     <use xlink:href="#m48d9f5c9f7" x="212.26698" y="548.589286" style="fill: #2b6572; stroke: #ffffff"/>
     <use xlink:href="#m48d9f5c9f7" x="239.869188" y="548.515774" style="fill: #2b6572; stroke: #ffffff"/>
     <use xlink:href="#m48d9f5c9f7" x="267.471396" y="548.515774" style="fill: #2b6572; stroke: #ffffff"/>
     <use xlink:href="#m48d9f5c9f7" x="295.073604" y="548.515774" style="fill: #2b6572; stroke: #ffffff"/>
     <use xlink:href="#m48d9f5c9f7" x="322.675812" y="548.515774" style="fill: #2b6572; stroke: #ffffff"/>
     <use xlink:href="#m48d9f5c9f7" x="350.27802" y="547.854167" style="fill: #2b6572; stroke: #ffffff"/>
     <use xlink:href="#m48d9f5c9f7" x="377.880228" y="547.854167" style="fill: #2b6572; stroke: #ffffff"/>
     <use xlink:href="#m48d9f5c9f7" x="405.482436" y="541.238095" style="fill: #2b6572; stroke: #ffffff"/>
     <use xlink:href="#m48d9f5c9f7" x="433.084644" y="541.238095" style="fill: #2b6572; stroke: #ffffff"/>
     <use xlink:href="#m48d9f5c9f7" x="460.686852" y="537.415476" style="fill: #2b6572; stroke: #ffffff"/>
     <use xlink:href="#m48d9f5c9f7" x="488.28906" y="536.974405" style="fill: #2b6572; stroke: #ffffff"/>
     <use xlink:href="#m48d9f5c9f7" x="515.891268" y="535.504167" style="fill: #2b6572; stroke: #ffffff"/>
     <use xlink:href="#m48d9f5c9f7" x="543.493476" y="535.357143" style="fill: #2b6572; stroke: #ffffff"/>
     <use xlink:href="#m48d9f5c9f7" x="571.095684" y="535.063095" style="fill: #2b6572; stroke: #ffffff"/>
     <use xlink:href="#m48d9f5c9f7" x="598.697892" y="518.449405" style="fill: #2b6572; stroke: #ffffff"/>
     <use xlink:href="#m48d9f5c9f7" x="626.3001" y="518.449405" style="fill: #2b6572; stroke: #ffffff"/>
     <use xlink:href="#m48d9f5c9f7" x="653.902308" y="518.449405" style="fill: #2b6572; stroke: #ffffff"/>
     <use xlink:href="#m48d9f5c9f7" x="681.504516" y="511.245238" style="fill: #2b6572; stroke: #ffffff"/>
     <use xlink:href="#m48d9f5c9f7" x="709.106724" y="507.569643" style="fill: #2b6572; stroke: #ffffff"/>
     <use xlink:href="#m48d9f5c9f7" x="736.708932" y="500.5125" style="fill: #2b6572; stroke: #ffffff"/>
     <use xlink:href="#m48d9f5c9f7" x="764.31114" y="500.5125" style="fill: #2b6572; stroke: #ffffff"/>
     <use xlink:href="#m48d9f5c9f7" x="791.913348" y="500.5125" style="fill: #2b6572; stroke: #ffffff"/>
     <use xlink:href="#m48d9f5c9f7" x="819.515556" y="494.631548" style="fill: #2b6572; stroke: #ffffff"/>
     <use xlink:href="#m48d9f5c9f7" x="847.117764" y="494.190476" style="fill: #2b6572; stroke: #ffffff"/>
     <use xlink:href="#m48d9f5c9f7" x="874.719972" y="490.07381" style="fill: #2b6572; stroke: #ffffff"/>
     <use xlink:href="#m48d9f5c9f7" x="902.32218" y="482.428571" style="fill: #2b6572; stroke: #ffffff"/>
     <use xlink:href="#m48d9f5c9f7" x="929.924388" y="454.347024" style="fill: #2b6572; stroke: #ffffff"/>
     <use xlink:href="#m48d9f5c9f7" x="957.526596" y="454.347024" style="fill: #2b6572; stroke: #ffffff"/>
     <use xlink:href="#m48d9f5c9f7" x="985.128804" y="454.347024" style="fill: #2b6572; stroke: #ffffff"/>
     <use xlink:href="#m48d9f5c9f7" x="1012.731012" y="453.758929" style="fill: #2b6572; stroke: #ffffff"/>
     <use xlink:href="#m48d9f5c9f7" x="1040.33322" y="443.614286" style="fill: #2b6572; stroke: #ffffff"/>
     <use xlink:href="#m48d9f5c9f7" x="1067.935428" y="443.614286" style="fill: #2b6572; stroke: #ffffff"/>
     <use xlink:href="#m48d9f5c9f7" x="1095.537636" y="442.732143" style="fill: #2b6572; stroke: #ffffff"/>
     <use xlink:href="#m48d9f5c9f7" x="1123.139844" y="405.97619" style="fill: #2b6572; stroke: #ffffff"/>
     <use xlink:href="#m48d9f5c9f7" x="1150.742052" y="405.97619" style="fill: #2b6572; stroke: #ffffff"/>
     <use xlink:href="#m48d9f5c9f7" x="1178.34426" y="405.97619" style="fill: #2b6572; stroke: #ffffff"/>
     <use xlink:href="#m48d9f5c9f7" x="1205.946468" y="405.97619" style="fill: #2b6572; stroke: #ffffff"/>
     <use xlink:href="#m48d9f5c9f7" x="1233.548676" y="403.035714" style="fill: #2b6572; stroke: #ffffff"/>
     <use xlink:href="#m48d9f5c9f7" x="1261.150884" y="317.761905" style="fill: #2b6572; stroke: #ffffff"/>
     <use xlink:href="#m48d9f5c9f7" x="1288.753092" y="141.333333" style="fill: #2b6572; stroke: #ffffff"/>
    </g>
   </g>
   <g id="PathCollection_2">
    <defs>
     <path id="me1ca4e15f6" d="M 0 3.24037 
C 0.859356 3.24037 1.683631 2.898944 2.291288 2.291288 
C 2.898944 1.683631 3.24037 0.859356 3.24037 0 
C 3.24037 -0.859356 2.898944 -1.683631 2.291288 -2.291288 
C 1.683631 -2.898944 0.859356 -3.24037 0 -3.24037 
C -0.859356 -3.24037 -1.683631 -2.898944 -2.291288 -2.291288 
C -2.898944 -1.683631 -3.24037 -0.859356 -3.24037 0 
C -3.24037 0.859356 -2.898944 1.683631 -2.291288 2.291288 
C -1.683631 2.898944 -0.859356 3.24037 0 3.24037 
z
" style="stroke: #ffffff"/>
    </defs>
    <g clip-path="url(#pe92408d0c4)">
     <use xlink:href="#me1ca4e15f6" x="101.858148" y="552.470714" style="fill: #dd8452; stroke: #ffffff"/>
     <use xlink:href="#me1ca4e15f6" x="129.460356" y="552.411905" style="fill: #dd8452; stroke: #ffffff"/>
     <use xlink:href="#me1ca4e15f6" x="157.062564" y="552.558929" style="fill: #dd8452; stroke: #ffffff"/>
     <use xlink:href="#me1ca4e15f6" x="184.664772" y="552.558929" style="fill: #dd8452; stroke: #ffffff"/>
     <use xlink:href="#me1ca4e15f6" x="212.26698" y="552.558929" style="fill: #dd8452; stroke: #ffffff"/>
     <use xlink:href="#me1ca4e15f6" x="239.869188" y="552.514821" style="fill: #dd8452; stroke: #ffffff"/>
     <use xlink:href="#me1ca4e15f6" x="267.471396" y="552.514821" style="fill: #dd8452; stroke: #ffffff"/>
     <use xlink:href="#me1ca4e15f6" x="295.073604" y="552.514821" style="fill: #dd8452; stroke: #ffffff"/>
     <use xlink:href="#me1ca4e15f6" x="322.675812" y="552.514821" style="fill: #dd8452; stroke: #ffffff"/>
     <use xlink:href="#me1ca4e15f6" x="350.27802" y="552.558929" style="fill: #dd8452; stroke: #ffffff"/>
     <use xlink:href="#me1ca4e15f6" x="377.880228" y="552.558929" style="fill: #dd8452; stroke: #ffffff"/>
     <use xlink:href="#me1ca4e15f6" x="405.482436" y="552.558929" style="fill: #dd8452; stroke: #ffffff"/>
     <use xlink:href="#me1ca4e15f6" x="433.084644" y="552.558929" style="fill: #dd8452; stroke: #ffffff"/>
     <use xlink:href="#me1ca4e15f6" x="460.686852" y="551.235714" style="fill: #dd8452; stroke: #ffffff"/>
     <use xlink:href="#me1ca4e15f6" x="488.28906" y="550.500595" style="fill: #dd8452; stroke: #ffffff"/>
     <use xlink:href="#me1ca4e15f6" x="515.891268" y="552.044345" style="fill: #dd8452; stroke: #ffffff"/>
     <use xlink:href="#me1ca4e15f6" x="543.493476" y="552.250179" style="fill: #dd8452; stroke: #ffffff"/>
     <use xlink:href="#me1ca4e15f6" x="571.095684" y="551.529762" style="fill: #dd8452; stroke: #ffffff"/>
     <use xlink:href="#me1ca4e15f6" x="598.697892" y="549.765476" style="fill: #dd8452; stroke: #ffffff"/>
     <use xlink:href="#me1ca4e15f6" x="626.3001" y="549.765476" style="fill: #dd8452; stroke: #ffffff"/>
     <use xlink:href="#me1ca4e15f6" x="653.902308" y="549.765476" style="fill: #dd8452; stroke: #ffffff"/>
     <use xlink:href="#me1ca4e15f6" x="681.504516" y="551.08869" style="fill: #dd8452; stroke: #ffffff"/>
     <use xlink:href="#me1ca4e15f6" x="709.106724" y="550.794643" style="fill: #dd8452; stroke: #ffffff"/>
     <use xlink:href="#me1ca4e15f6" x="736.708932" y="548.295238" style="fill: #dd8452; stroke: #ffffff"/>
     <use xlink:href="#me1ca4e15f6" x="764.31114" y="548.295238" style="fill: #dd8452; stroke: #ffffff"/>
     <use xlink:href="#me1ca4e15f6" x="791.913348" y="548.295238" style="fill: #dd8452; stroke: #ffffff"/>
     <use xlink:href="#me1ca4e15f6" x="819.515556" y="550.500595" style="fill: #dd8452; stroke: #ffffff"/>
     <use xlink:href="#me1ca4e15f6" x="847.117764" y="550.500595" style="fill: #dd8452; stroke: #ffffff"/>
     <use xlink:href="#me1ca4e15f6" x="874.719972" y="549.765476" style="fill: #dd8452; stroke: #ffffff"/>
     <use xlink:href="#me1ca4e15f6" x="902.32218" y="547.854167" style="fill: #dd8452; stroke: #ffffff"/>
     <use xlink:href="#me1ca4e15f6" x="929.924388" y="547.560119" style="fill: #dd8452; stroke: #ffffff"/>
     <use xlink:href="#me1ca4e15f6" x="957.526596" y="547.560119" style="fill: #dd8452; stroke: #ffffff"/>
     <use xlink:href="#me1ca4e15f6" x="985.128804" y="547.560119" style="fill: #dd8452; stroke: #ffffff"/>
     <use xlink:href="#me1ca4e15f6" x="1012.731012" y="546.972024" style="fill: #dd8452; stroke: #ffffff"/>
     <use xlink:href="#me1ca4e15f6" x="1040.33322" y="547.119048" style="fill: #dd8452; stroke: #ffffff"/>
     <use xlink:href="#me1ca4e15f6" x="1067.935428" y="547.119048" style="fill: #dd8452; stroke: #ffffff"/>
     <use xlink:href="#me1ca4e15f6" x="1095.537636" y="547.119048" style="fill: #dd8452; stroke: #ffffff"/>
     <use xlink:href="#me1ca4e15f6" x="1123.139844" y="548.295238" style="fill: #dd8452; stroke: #ffffff"/>
     <use xlink:href="#me1ca4e15f6" x="1150.742052" y="548.295238" style="fill: #dd8452; stroke: #ffffff"/>
     <use xlink:href="#me1ca4e15f6" x="1178.34426" y="548.295238" style="fill: #dd8452; stroke: #ffffff"/>
     <use xlink:href="#me1ca4e15f6" x="1205.946468" y="548.295238" style="fill: #dd8452; stroke: #ffffff"/>
     <use xlink:href="#me1ca4e15f6" x="1233.548676" y="546.825" style="fill: #dd8452; stroke: #ffffff"/>
     <use xlink:href="#me1ca4e15f6" x="1261.150884" y="545.795833" style="fill: #dd8452; stroke: #ffffff"/>
     <use xlink:href="#me1ca4e15f6" x="1288.753092" y="537.709524" style="fill: #dd8452; stroke: #ffffff"/>
    </g>
   </g>
   <g id="legend_1">
    <g id="line2d_26">
     <path d="M 87.03594 77.599781 
L 101.23594 77.599781 
L 115.43594 77.599781 
" style="fill: none; stroke: #2b6572; stroke-width: 3; stroke-linecap: square"/>
    </g>
    <g id="text_10">
     <text style="font-size: 14.2px; font-family: 'DejaVu Sans', 'Arial', 'Helvetica', sans-serif; text-anchor: start" x="126.79594" y="82.569781" transform="rotate(-0 126.79594 82.569781)">Total Params (B)</text>
    </g>
    <g id="line2d_27">
     <path d="M 87.03594 99.862719 
L 101.23594 99.862719 
L 115.43594 99.862719 
" style="fill: none; stroke: #dd8452; stroke-width: 3; stroke-linecap: square"/>
    </g>
    <g id="text_11">
     <text style="font-size: 14.2px; font-family: 'DejaVu Sans', 'Arial', 'Helvetica', sans-serif; text-anchor: start" x="126.79594" y="104.832719" transform="rotate(-0 126.79594 104.832719)">Active Params (B)</text>
    </g>
   </g>
   <g id="text_12">
    <g id="patch_8">
     <path d="M 1089.319844 403.69019 
L 1158.399844 403.69019 
Q 1162.879844 403.69019 1162.879844 399.21019 
L 1162.879844 386.82219 
Q 1162.879844 382.34219 1158.399844 382.34219 
L 1089.319844 382.34219 
Q 1084.839844 382.34219 1084.839844 386.82219 
L 1084.839844 399.21019 
Q 1084.839844 403.69019 1089.319844 403.69019 
z
" style="fill: #ffffff; stroke: #dddddd; stroke-linejoin: miter"/>
    </g>
    <text style="font-weight: 700; font-size: 12.8px; font-family: 'DejaVu Sans', 'Arial', 'Helvetica', sans-serif; text-anchor: middle; fill: #242424" x="1123.859844" y="396.54819" transform="rotate(-0 1123.859844 396.54819)">Kimi K2.6</text>
   </g>
   <g id="text_13">
    <g id="patch_9">
     <path d="M 1064.886052 428.230667 
L 1160.278052 428.230667 
Q 1164.758052 428.230667 1164.758052 423.750667 
L 1164.758052 411.362667 
Q 1164.758052 406.882667 1160.278052 406.882667 
L 1064.886052 406.882667 
Q 1060.406052 406.882667 1060.406052 411.362667 
L 1060.406052 423.750667 
Q 1060.406052 428.230667 1064.886052 428.230667 
z
" style="fill: #ffffff; stroke: #dddddd; stroke-linejoin: miter"/>
    </g>
    <text style="font-weight: 700; font-size: 12.8px; font-family: 'DejaVu Sans', 'Arial', 'Helvetica', sans-serif; text-anchor: middle; fill: #242424" x="1112.582052" y="421.088667" transform="rotate(-0 1112.582052 421.088667)">Kimi K2 0905</text>
   </g>
   <g id="text_14">
    <g id="patch_10">
     <path d="M 1180.52426 423.190667 
L 1249.60426 423.190667 
Q 1254.08426 423.190667 1254.08426 418.710667 
L 1254.08426 406.322667 
Q 1254.08426 401.842667 1249.60426 401.842667 
L 1180.52426 401.842667 
Q 1176.04426 401.842667 1176.04426 406.322667 
L 1176.04426 418.710667 
Q 1176.04426 423.190667 1180.52426 423.190667 
z
" style="fill: #ffffff; stroke: #dddddd; stroke-linejoin: miter"/>
    </g>
    <text style="font-weight: 700; font-size: 12.8px; font-family: 'DejaVu Sans', 'Arial', 'Helvetica', sans-serif; text-anchor: middle; fill: #242424" x="1215.06426" y="416.048667" transform="rotate(-0 1215.06426 416.048667)">Kimi K2.5</text>
   </g>
   <g id="text_15">
    <g id="patch_11">
     <path d="M 1195.237676 403.569238 
L 1300.659676 403.569238 
Q 1305.139676 403.569238 1305.139676 399.089238 
L 1305.139676 386.701238 
Q 1305.139676 382.221238 1300.659676 382.221238 
L 1195.237676 382.221238 
Q 1190.757676 382.221238 1190.757676 386.701238 
L 1190.757676 399.089238 
Q 1190.757676 403.569238 1195.237676 403.569238 
z
" style="fill: #ffffff; stroke: #dddddd; stroke-linejoin: miter"/>
    </g>
    <text style="font-weight: 700; font-size: 12.8px; font-family: 'DejaVu Sans', 'Arial', 'Helvetica', sans-serif; text-anchor: middle; fill: #242424" x="1247.948676" y="396.427238" transform="rotate(-0 1247.948676 396.427238)">MiMo-V2.5-Pro</text>
   </g>
   <g id="text_16">
    <g id="patch_12">
     <path d="M 1161.481884 335.635905 
L 1285.939884 335.635905 
Q 1290.419884 335.635905 1290.419884 331.155905 
L 1290.419884 318.767905 
Q 1290.419884 314.287905 1285.939884 314.287905 
L 1161.481884 314.287905 
Q 1157.001884 314.287905 1157.001884 318.767905 
L 1157.001884 331.155905 
Q 1157.001884 335.635905 1161.481884 335.635905 
z
" style="fill: #ffffff; stroke: #dddddd; stroke-linejoin: miter"/>
    </g>
    <text style="font-weight: 700; font-size: 12.8px; font-family: 'DejaVu Sans', 'Arial', 'Helvetica', sans-serif; text-anchor: middle; fill: #242424" x="1223.710884" y="328.493905" transform="rotate(-0 1223.710884 328.493905)">DeepSeek V4 Pro</text>
   </g>
   <g id="text_17">
    <g id="patch_13">
     <path d="M 1243.817092 159.207333 
L 1299.129092 159.207333 
Q 1303.609092 159.207333 1303.609092 154.727333 
L 1303.609092 142.339333 
Q 1303.609092 137.859333 1299.129092 137.859333 
L 1243.817092 137.859333 
Q 1239.337092 137.859333 1239.337092 142.339333 
L 1239.337092 154.727333 
Q 1239.337092 159.207333 1243.817092 159.207333 
z
" style="fill: #ffffff; stroke: #dddddd; stroke-linejoin: miter"/>
    </g>
    <text style="font-weight: 700; font-size: 12.8px; font-family: 'DejaVu Sans', 'Arial', 'Helvetica', sans-serif; text-anchor: middle; fill: #242424" x="1271.473092" y="152.065333" transform="rotate(-0 1271.473092 152.065333)">Kimi K3</text>
   </g>
  </g>
  <g id="text_18">
   <text style="font-size: 14.2px; font-family: 'DejaVu Sans', 'Arial', 'Helvetica', sans-serif; text-anchor: start; fill: #4d4d4d" x="24.301944" y="29.789781" transform="rotate(-0 24.301944 29.789781)">Active and total parameter counts across the open-source model pool, sorted by total size.</text>
  </g>
 </g>
 <defs>
  <clipPath id="pe92408d0c4">
   <rect x="74.25594" y="59" width="1242.09936" height="494"/>
  </clipPath>
 </defs>
</svg>
